<svg viewBox="0 0 25 25" width="100%" height="100%" fill="#ffffff" xmlns="http://www.w3.org/2000/svg"><rect fill="#ffffff" width="100%" height="100%"></rect><path d="M0 0v1h7v-1zM10 0v1h1v-1zM12 0v1h1v-1zM16 0v1h1v-1zM18 0v1h7v-1zM0 1v1h1v-1zM6 1v1h1v-1zM8 1v1h1v-1zM10 1v1h1v-1zM14 1v1h2v-1zM18 1v1h1v-1zM24 1v1h1v-1zM0 2v1h1v-1zM2 2v1h3v-1zM6 2v1h1v-1zM12 2v1h1v-1zM14 2v1h1v-1zM16 2v1h1v-1zM18 2v1h1v-1zM20 2v1h3v-1zM24 2v1h1v-1zM0 3v1h1v-1zM2 3v1h3v-1zM6 3v1h1v-1zM8 3v1h3v-1zM12 3v1h3v-1zM18 3v1h1v-1zM20 3v1h3v-1zM24 3v1h1v-1zM0 4v1h1v-1zM2 4v1h3v-1zM6 4v1h1v-1zM9 4v1h1v-1zM14 4v1h1v-1zM16 4v1h1v-1zM18 4v1h1v-1zM20 4v1h3v-1zM24 4v1h1v-1zM0 5v1h1v-1zM6 5v1h1v-1zM8 5v1h2v-1zM11 5v1h2v-1zM14 5v1h2v-1zM18 5v1h1v-1zM24 5v1h1v-1zM0 6v1h7v-1zM8 6v1h1v-1zM10 6v1h1v-1zM12 6v1h1v-1zM14 6v1h1v-1zM16 6v1h1v-1zM18 6v1h7v-1zM9 7v1h3v-1zM16 7v1h1v-1zM0 8v1h5v-1zM6 8v1h4v-1zM11 8v1h1v-1zM17 8v1h1v-1zM19 8v1h1v-1zM21 8v1h1v-1zM23 8v1h1v-1zM1 9v1h1v-1zM5 9v1h1v-1zM10 9v1h1v-1zM12 9v1h2v-1zM19 9v1h1v-1zM23 9v1h1v-1zM1 10v1h1v-1zM3 10v1h1v-1zM5 10v1h2v-1zM8 10v1h1v-1zM10 10v1h1v-1zM13 10v1h6v-1zM21 10v1h1v-1zM23 10v1h2v-1zM0 11v1h1v-1zM12 11v1h2v-1zM18 11v1h1v-1zM20 11v1h1v-1zM24 11v1h1v-1zM0 12v1h1v-1zM2 12v1h5v-1zM9 12v1h2v-1zM12 12v1h1v-1zM14 12v1h7v-1zM22 12v1h3v-1zM0 13v1h1v-1zM3 13v1h1v-1zM5 13v1h1v-1zM8 13v1h2v-1zM16 13v1h1v-1zM19 13v1h1v-1zM21 13v1h1v-1zM23 13v1h1v-1zM0 14v1h1v-1zM2 14v1h2v-1zM6 14v1h1v-1zM8 14v1h5v-1zM15 14v1h2v-1zM18 14v1h4v-1zM23 14v1h2v-1zM0 15v1h1v-1zM3 15v1h3v-1zM7 15v1h1v-1zM11 15v1h1v-1zM14 15v1h1v-1zM17 15v1h1v-1zM19 15v1h2v-1zM24 15v1h1v-1zM0 16v1h1v-1zM2 16v1h1v-1zM5 16v1h2v-1zM10 16v1h2v-1zM15 16v1h6v-1zM22 16v1h1v-1zM8 17v1h3v-1zM12 17v1h3v-1zM16 17v1h1v-1zM20 17v1h2v-1zM0 18v1h7v-1zM8 18v1h1v-1zM10 18v1h1v-1zM13 18v1h2v-1zM16 18v1h1v-1zM18 18v1h1v-1zM20 18v1h1v-1zM22 18v1h3v-1zM0 19v1h1v-1zM6 19v1h1v-1zM9 19v1h1v-1zM12 19v1h2v-1zM16 19v1h1v-1zM20 19v1h2v-1zM23 19v1h1v-1zM0 20v1h1v-1zM2 20v1h3v-1zM6 20v1h1v-1zM8 20v1h2v-1zM12 20v1h1v-1zM14 20v1h7v-1zM22 20v1h1v-1zM24 20v1h1v-1zM0 21v1h1v-1zM2 21v1h3v-1zM6 21v1h1v-1zM8 21v1h3v-1zM17 21v1h2v-1zM20 21v1h5v-1zM0 22v1h1v-1zM2 22v1h3v-1zM6 22v1h1v-1zM8 22v1h5v-1zM15 22v1h1v-1zM21 22v1h2v-1zM24 22v1h1v-1zM0 23v1h1v-1zM6 23v1h1v-1zM8 23v1h2v-1zM11 23v1h1v-1zM14 23v1h4v-1zM19 23v1h3v-1zM24 23v1h1v-1zM0 24v1h7v-1zM8 24v1h1v-1zM10 24v1h2v-1zM18 24v1h7v-1z" fill="#000000"></path></svg>
